<!-- Generated by IcoMoon.io -->
<svg version="1.1" xmlns="http://www.w3.org/2000/svg" width="32" height="32" viewBox="0 0 32 32">
<path fill="#f4f4fd" d="M31.968 9.408c-0.074-1.7-0.35-2.87-0.744-3.882-0.425-1.11-1.054-2.057-1.848-2.836l-0.001-0.001-0.001-0.001c-0.767-0.779-1.692-1.399-2.725-1.807l-0.053-0.019-0.054-0.018c-1.020-0.394-2.18-0.67-3.88-0.744-1.716-0.080-2.262-0.1-6.602-0.1-4.346 0-4.89 0.020-6.596 0.094-1.7 0.074-2.868 0.35-3.88 0.744-1.111 0.425-2.058 1.054-2.838 1.848l-0.002 0.002c-0.779 0.767-1.399 1.692-1.807 2.725l-0.019 0.053-0.018 0.054c-0.394 1.020-0.668 2.18-0.744 3.88-0.080 1.714-0.1 2.26-0.1 6.602 0 4.346 0.020 4.89 0.094 6.596 0.074 1.7 0.35 2.87 0.744 3.882 0.427 1.111 1.056 2.058 1.849 2.839l0.001 0.001c0.78 0.79 1.725 1.416 2.778 1.824l0.054 0.018c1.020 0.394 2.18 0.67 3.882 0.744 1.706 0.076 2.25 0.094 6.596 0.094 4.344 0 4.888-0.020 6.594-0.094 1.7-0.074 2.87-0.35 3.882-0.744 2.156-0.85 3.832-2.524 4.663-4.625l0.019-0.055c0.394-1.020 0.67-2.184 0.744-3.884 0.076-1.706 0.094-2.25 0.094-6.594 0-4.346-0.006-4.89-0.080-6.596zM29.088 22.472c-0.070 1.564-0.332 2.408-0.552 2.97-0.549 1.387-1.621 2.467-2.966 3.014l-0.072 0.026c-0.562 0.218-1.412 0.48-2.968 0.548-1.688 0.076-2.194 0.094-6.464 0.094s-4.782-0.020-6.464-0.094c-1.564-0.068-2.408-0.33-2.97-0.55-0.72-0.27-1.334-0.676-1.836-1.192l-0.001-0.001-0.001-0.001c-0.508-0.496-0.911-1.098-1.171-1.77l-0.012-0.034-0.011-0.034c-0.22-0.562-0.48-1.412-0.55-2.968-0.074-1.688-0.094-2.196-0.094-6.464 0-4.27 0.020-4.782 0.094-6.464 0.070-1.564 0.332-2.406 0.55-2.97 0.27-0.722 0.679-1.336 1.198-1.837l0.002-0.001c0.505-0.516 1.119-0.923 1.806-1.183l0.034-0.011c0.56-0.22 1.412-0.48 2.968-0.55 1.688-0.074 2.194-0.094 6.464-0.094 4.276 0 4.78 0.020 6.464 0.094 1.562 0.070 2.406 0.332 2.968 0.55 0.721 0.27 1.336 0.677 1.839 1.193l0.001 0.001c0.516 0.505 0.922 1.119 1.181 1.806l0.011 0.034c0.22 0.56 0.482 1.412 0.55 2.968 0.076 1.688 0.094 2.194 0.094 6.464s-0.018 4.77-0.092 6.458z"></path>
<path fill="#f4f4fd" d="M16.060 7.782c-4.464 0.099-8.046 3.741-8.046 8.22 0 4.475 3.576 8.116 8.026 8.22l0.010 0h0.009c4.464-0.099 8.046-3.741 8.046-8.22 0-4.475-3.576-8.116-8.026-8.22l-0.010-0h-0.009zM16.060 21.336c-2.946 0-5.334-2.388-5.334-5.334s2.388-5.334 5.334-5.334v0c2.946 0 5.334 2.388 5.334 5.334s-2.388 5.334-5.334 5.334v0zM26.524 7.458c0 1.060-0.86 1.92-1.92 1.92s-1.92-0.86-1.92-1.92v0c0-1.060 0.86-1.92 1.92-1.92s1.92 0.86 1.92 1.92v0z"></path>
</svg>
