<!-- Generated by IcoMoon.io -->
<svg version="1.1" xmlns="http://www.w3.org/2000/svg" width="32" height="32" viewBox="0 0 32 32">
<path fill="#f4f4fd" d="M32 6.078c-1.1 0.494-2.376 0.858-3.712 1.029l-0.068 0.007c1.345-0.811 2.359-2.054 2.859-3.534l0.014-0.046 0.013-0.046c-1.173 0.714-2.538 1.26-3.993 1.56l-0.083 0.014-0.084 0.014c-1.2-1.279-2.901-2.076-4.788-2.076-3.623 0-6.56 2.937-6.56 6.56v0c0 0.52 0.044 1.020 0.152 1.496-5.454-0.273-10.253-2.862-13.469-6.795l-0.026-0.033-0.027-0.034c-0.562 0.942-0.895 2.077-0.895 3.29 0 0.007 0 0.014 0 0.022v-0.001c0 0.001 0 0.003 0 0.005 0 2.253 1.135 4.241 2.865 5.423l0.023 0.015 0.023 0.015c-1.105-0.029-2.134-0.33-3.029-0.84l0.032 0.017 0.033 0.017v0.072c0.004 3.149 2.215 5.78 5.169 6.43l0.087 0.016c-0.495 0.137-1.063 0.216-1.65 0.216-0.007 0-0.013 0-0.020-0h-0.050c-0.032 0.001-0.069 0.001-0.106 0.001-0.415 0-0.82-0.043-1.211-0.126l0.038 0.007 0.037 0.006c0.873 2.624 3.273 4.496 6.121 4.57h0.009c-2.204 1.744-5.025 2.798-8.091 2.798-0.010 0-0.020 0-0.030-0h-0.012c-0.538 0-1.054-0.024-1.57-0.090 2.826 1.846 6.287 2.944 10.004 2.944h0.060c12.072 0 18.672-10 18.672-18.668 0-0.29-0.010-0.57-0.024-0.848 1.283-0.928 2.364-2.041 3.229-3.313l0.029-0.046 0.030-0.047z"></path>
</svg>
